<svg width="175" height="34" viewBox="0 0 175 34" fill="none" xmlns="http://www.w3.org/2000/svg">
<g clip-path="url(#clip0_6801_19961)">
<path d="M7.66382 1.27417H0V22.0207H7.03562C8.41282 22.0457 9.78113 21.7936 11.0603 21.2792C12.3395 20.7647 13.5038 19.9983 14.4851 19.0249C15.4663 18.0514 16.2446 16.8905 16.7745 15.6102C17.3044 14.3299 17.5751 12.956 17.5708 11.5689C17.5773 8.89132 16.5454 6.31696 14.695 4.3941C12.8445 2.47125 10.3217 1.35181 7.66382 1.27417ZM6.9161 18.9282H3.27221V4.36669H6.7135C7.66298 4.35281 8.60589 4.52738 9.48837 4.88045C10.3709 5.23352 11.1756 5.75821 11.8568 6.42447C12.5379 7.09074 13.082 7.88557 13.4581 8.7636C13.8342 9.64162 14.0349 10.5856 14.0486 11.5418C14.0624 12.4979 13.8891 13.4474 13.5384 14.336C13.1878 15.2247 12.6668 16.0351 12.0052 16.721C11.3435 17.4069 10.5542 17.9548 9.68227 18.3335C8.81034 18.7122 7.87288 18.9143 6.92339 18.9282H6.9161Z" fill="#161615"/>
<path d="M124.773 15.8121L114.376 1.27271H111.449V22.0192H114.656V7.48861L125.054 22.0192H127.981V1.27418H124.774L124.773 15.8121Z" fill="#161615"/>
<path d="M28.4441 12.9939H36.4957V9.97619H28.4441V4.39875H36.7026V1.26807H25.1777V22.0146H36.7784V18.8912H28.4441V12.9939Z" fill="#161615"/>
<path d="M166.665 18.8912V12.9939H174.716V9.97619H166.665V4.39875H174.923V1.26807H163.393V22.0146H174.993V18.8912H166.665Z" fill="#161615"/>
<path d="M93.9972 1.27417L85.6191 22.0207H89.1173L90.9188 17.3665L91.0646 17.0054H99.5082L99.6539 17.3665L101.457 22.0207H105.101L96.7228 1.27417H93.9972ZM95.274 6.03111L98.3713 14.1037H92.1767L95.274 6.03111Z" fill="#161615"/>
<path d="M53.9109 10.5428C53.5378 10.3961 52.0263 9.89996 51.3048 9.64164C49.6374 9.04133 48.3474 8.30014 48.3052 6.73406C48.2585 5.01974 49.4974 3.84409 51.522 3.84409C52.3942 3.85142 53.2318 4.18923 53.8679 4.79032C54.5039 5.3914 54.8919 6.21166 54.9545 7.08778L58.0883 6.77809C57.9741 5.12669 57.2157 3.58786 55.9785 2.49774C54.7414 1.40761 53.1261 0.854739 51.4855 0.959942C50.6718 0.910055 49.8563 1.02391 49.0867 1.29481C48.3171 1.56571 47.6088 1.98825 47.0031 2.53778C46.3974 3.08731 45.9065 3.75281 45.5589 4.49545C45.2114 5.2381 45.0143 6.043 44.979 6.8632C44.979 9.55503 46.4366 11.4338 49.6242 12.6109C50.1854 12.8178 51.7129 13.3712 52.1939 13.5547C54.1368 14.2988 55.0915 15.3658 55.0915 16.5723C55.0545 16.9861 54.9364 17.3884 54.7441 17.756C54.5518 18.1237 54.2892 18.4493 53.9713 18.7141C53.6534 18.979 53.2865 19.1779 52.8919 19.2992C52.4973 19.4206 52.0827 19.462 51.6721 19.4212C50.7742 19.522 49.8714 19.2795 49.1426 18.7419C48.4137 18.2042 47.912 17.4105 47.7367 16.518L44.3945 16.8482C45.0315 20.3708 47.7323 22.3376 51.5453 22.3376C55.5769 22.3376 58.4264 19.8835 58.4264 16.3595C58.3981 15.029 57.9429 13.7436 57.129 12.6951C56.3152 11.6467 55.1862 10.8917 53.9109 10.5428Z" fill="#161615"/>
<path d="M74.9641 10.5428C74.591 10.3961 73.0795 9.89996 72.358 9.64164C70.6906 9.04133 69.4006 8.30014 69.3584 6.73406C69.3117 5.01974 70.5507 3.84409 72.5752 3.84409C73.4475 3.85142 74.285 4.18923 74.9211 4.79032C75.5572 5.3914 75.9451 6.21166 76.0078 7.08778L79.1415 6.77809C79.0274 5.12669 78.2689 3.58786 77.0318 2.49774C75.7946 1.40761 74.1794 0.854739 72.5388 0.959942C71.725 0.910055 70.9095 1.02391 70.1399 1.29481C69.3703 1.56571 68.662 1.98825 68.0563 2.53778C67.4506 3.08731 66.9597 3.75281 66.6122 4.49545C66.2647 5.2381 66.0675 6.043 66.0322 6.8632C66.0322 9.55503 67.4898 11.4338 70.6775 12.6109C71.2386 12.8178 72.7661 13.3712 73.2486 13.5547C75.1915 14.2988 76.1462 15.3658 76.1462 16.5723C76.1092 16.9861 75.9911 17.3884 75.7988 17.756C75.6065 18.1237 75.3438 18.4493 75.0259 18.7141C74.708 18.979 74.3412 19.1779 73.9466 19.2992C73.552 19.4206 73.1374 19.462 72.7268 19.4212C71.8289 19.522 70.9261 19.2795 70.1973 18.7419C69.4684 18.2042 68.9667 17.4105 68.7914 16.518L65.4492 16.8482C66.0862 20.3708 68.787 22.3376 72.6 22.3376C76.6316 22.3376 79.4811 19.8835 79.4811 16.3595C79.4527 15.0288 78.9973 13.7432 78.1832 12.6948C77.369 11.6463 76.2397 10.8914 74.9641 10.5428Z" fill="#161615"/>
<path d="M162.755 29.902L162.026 29.6481C161.589 29.5013 161.318 29.2885 161.318 28.9523C161.317 28.8417 161.339 28.7321 161.383 28.6303C161.426 28.5286 161.489 28.4368 161.569 28.3607C161.649 28.2847 161.743 28.2259 161.846 28.188C161.95 28.1502 162.06 28.1341 162.169 28.1407C162.405 28.1433 162.632 28.2327 162.807 28.3923C162.982 28.5519 163.092 28.7705 163.118 29.0067L163.961 28.8937C163.927 28.4514 163.722 28.0403 163.389 27.7497C163.056 27.4592 162.623 27.3127 162.184 27.3423C161.783 27.2998 161.38 27.4126 161.059 27.6579C160.737 27.9031 160.52 28.2623 160.452 28.6627C160.384 29.0631 160.469 29.4746 160.691 29.8138C160.913 30.153 161.255 30.3944 161.647 30.4891L162.376 30.7474C162.872 30.925 163.14 31.2083 163.14 31.518C163.14 31.926 162.751 32.2342 162.236 32.2342C162.002 32.2636 161.764 32.2038 161.571 32.0665C161.378 31.9291 161.242 31.7241 161.191 31.4916L160.271 31.5796C160.349 32.0243 160.592 32.4228 160.949 32.695C161.307 32.9673 161.754 33.0932 162.2 33.0474C162.427 33.0742 162.657 33.0535 162.876 32.9865C163.095 32.9195 163.298 32.8077 163.472 32.658C163.646 32.5083 163.787 32.3241 163.887 32.1168C163.987 31.9095 164.043 31.6836 164.052 31.4534C164.045 31.0844 163.912 30.7292 163.676 30.447C163.44 30.1647 163.115 29.9723 162.755 29.902Z" fill="#161615"/>
<path d="M145.933 13.3712H153.539C153.16 15.1833 152.122 16.7873 150.629 17.8683C149.136 18.9492 147.296 19.4288 145.469 19.2129C143.643 18.997 141.963 18.1011 140.759 16.7014C139.555 15.3016 138.914 13.4992 138.963 11.6481C138.948 10.6643 139.127 9.68735 139.49 8.77367C139.852 7.85999 140.391 7.02769 141.075 6.32485C141.758 5.62202 142.574 5.06257 143.473 4.67884C144.373 4.29511 145.339 4.09471 146.316 4.0892H146.695V0.957039H146.316C144.899 0.919638 143.489 1.16846 142.168 1.6888C140.848 2.20915 139.645 2.99047 138.629 3.98672C137.613 4.98296 136.806 6.17395 136.255 7.4894C135.704 8.80484 135.42 10.2181 135.42 11.6459C135.42 13.0736 135.704 14.4869 136.255 15.8023C136.806 17.1178 137.613 18.3087 138.629 19.305C139.645 20.3012 140.848 21.0826 142.168 21.6029C143.489 22.1233 144.899 22.3721 146.316 22.3347C151.709 22.3347 157.166 18.3101 157.166 10.6192V10.2376H145.943L145.933 13.3712Z" fill="#161615"/>
<path d="M130.201 27.4395H128.598V32.9494H129.519V31.1602H130.194C130.443 31.1702 130.691 31.1294 130.924 31.0403C131.157 30.9513 131.369 30.8158 131.549 30.642C131.728 30.4682 131.871 30.2596 131.969 30.0289C132.066 29.7981 132.117 29.5499 132.117 29.2991C132.117 29.0483 132.066 28.8 131.969 28.5693C131.871 28.3385 131.728 28.13 131.549 27.9562C131.369 27.7824 131.157 27.6469 130.924 27.5579C130.691 27.4688 130.443 27.428 130.194 27.438L130.201 27.4395ZM130.039 30.3456H129.526V28.2526H130.039C130.184 28.2303 130.332 28.2414 130.472 28.285C130.612 28.3286 130.74 28.4036 130.847 28.5043C130.954 28.6051 131.037 28.729 131.089 28.8666C131.142 29.0043 131.162 29.1522 131.15 29.2991C131.15 29.9948 130.775 30.3456 130.041 30.3456H130.039Z" fill="#161615"/>
<path d="M138.452 27.4395L136.221 32.9494H137.189L137.688 31.6519H139.875L140.375 32.9494H141.418L139.193 27.4365L138.452 27.4395ZM137.99 30.8842L138.789 28.8089L139.589 30.8842H137.99Z" fill="#161615"/>
<path d="M149.993 32.9493C149.993 32.9493 148.643 31.4625 147.973 30.7389C148.356 30.6883 148.708 30.5003 148.964 30.2094C149.22 29.9184 149.364 29.5441 149.368 29.1552C149.369 28.9139 149.321 28.6749 149.224 28.4539C149.128 28.2329 148.987 28.0348 148.809 27.8726C148.632 27.7104 148.422 27.5877 148.194 27.5126C147.967 27.4374 147.726 27.4115 147.487 27.4365H145.854V32.9493H146.775V30.7477L148.699 32.9493H149.993ZM146.775 30.1166V28.2232H147.474C147.602 28.2104 147.731 28.2257 147.853 28.2681C147.974 28.3105 148.085 28.379 148.177 28.4687C148.27 28.5585 148.342 28.6674 148.388 28.788C148.435 28.9085 148.455 29.0379 148.446 29.167C148.446 29.7922 148.033 30.1107 147.219 30.1107C147.219 30.1092 146.923 30.1181 146.775 30.1166Z" fill="#161615"/>
<path d="M155.34 27.4392H154.418V32.952H155.34V27.4392Z" fill="#161615"/>
</g>
<defs>
<clipPath id="clip0_6801_19961">
<rect width="175" height="32.0833" fill="white" transform="translate(0 0.958252)"/>
</clipPath>
</defs>
</svg>
