<?xml version="1.0" encoding="UTF-8"?>
<svg id="Layer_2" data-name="Layer 2" xmlns="http://www.w3.org/2000/svg" viewBox="0 0 649.35 191.09">
  <defs>
    <style>
      .cls-1 {
        fill: #684e41;
        stroke-width: 0px;
      }
    </style>
  </defs>
  <g id="Layer_1-2" data-name="Layer 1">
    <g>
      <path class="cls-1" d="M222.78,12.37h42.8l5.64,21.01-1.15.64c-1.45-4.27-5.17-8.71-11.15-13.33-5.98-4.61-11.66-6.92-17.04-6.92h-11.92v43.31h6.15c3.84,0,6.92-2.11,9.23-6.34,2.31-4.23,3.46-8.78,3.46-13.65h1.67v39.59h-1.67c-.17-11.96-4.36-17.94-12.56-17.94h-6.28v31.39c0,2.56.66,4.81,1.99,6.73,1.32,1.92,3.27,3.18,5.83,3.78v1.41h-29.73v-1.41c2.48-.6,4.4-1.86,5.77-3.78,1.37-1.92,2.05-4.16,2.05-6.73V23c0-4.87-2.61-7.94-7.82-9.23v-1.41h14.74Z"/>
      <path class="cls-1" d="M335.28,87.58c1.54,4.36,3.54,7.62,6.02,9.8,2.48,2.18,5.85,3.35,10.12,3.52v1.15h-18.45c-2.05-.08-3.7-.66-4.93-1.73-1.24-1.07-2.42-2.63-3.52-4.68-.94-1.79-1.84-4.16-2.69-7.11-.85-2.95-1.65-5.55-2.37-7.82-.73-2.26-1.65-4.53-2.75-6.79-1.11-2.26-2.67-4.06-4.68-5.38-2.01-1.32-4.46-2.07-7.37-2.24h-5.51v23.83c0,2.56.68,4.81,2.05,6.73,1.37,1.92,3.29,3.18,5.77,3.78v1.41h-29.98v-1.41c2.48-.6,4.4-1.86,5.77-3.78,1.37-1.92,2.05-4.16,2.05-6.73V23c0-4.87-2.61-7.94-7.82-9.23v-1.41h32.42c4.36,0,8.31.66,11.85,1.99,3.54,1.33,6.49,3.08,8.84,5.25,2.35,2.18,4.23,4.7,5.64,7.56,1.41,2.86,2.28,5.83,2.63,8.91.34,3.08.15,6.15-.58,9.23-.73,3.08-1.92,5.94-3.59,8.59-1.67,2.65-3.95,5-6.86,7.05-2.91,2.05-6.19,3.5-9.87,4.36,2.39.6,4.48,1.41,6.28,2.44,1.79,1.02,3.22,2.14,4.29,3.33,1.07,1.2,2.01,2.58,2.82,4.16.81,1.58,1.41,3.01,1.79,4.29.38,1.28.81,2.73,1.28,4.36.47,1.62.92,2.86,1.34,3.72ZM299.15,64.39h7.95c3.84-.17,7.18-1.54,9.99-4.1,2.82-2.56,4.87-5.72,6.15-9.48,1.28-3.76,1.88-7.79,1.79-12.11-.09-4.31-.81-8.31-2.18-11.98-1.37-3.67-3.55-6.75-6.54-9.23-2.99-2.48-6.49-3.72-10.51-3.72h-6.53l-.13,50.61Z"/>
      <path class="cls-1" d="M417.68,94.12c1.54,4.36,4.18,6.53,7.94,6.53h1.67v1.41h-33.19v-1.41h2.18c5.21,0,6.83-3.08,4.87-9.23l-5.77-17.94c-3.67.43-6.88,1.33-9.61,2.69-2.74,1.37-4.85,2.95-6.34,4.74-1.5,1.79-2.8,3.72-3.91,5.77-1.11,2.05-2.05,4.04-2.82,5.96-.77,1.92-1.58,3.7-2.43,5.32-.85,1.62-1.99,2.91-3.4,3.84s-3.1,1.41-5.06,1.41c-2.14,0-3.76-.79-4.87-2.37-1.11-1.58-1.62-3.4-1.54-5.45.08-2.05.38-4.06.9-6.02l22.68-67.27c.6-1.79.51-3.63-.26-5.51-.77-1.88-1.92-2.82-3.46-2.82l-.13-1.41h14.22l28.32,81.75ZM364.37,90.15c1.45,0,2.84-.51,4.17-1.54,1.32-1.02,2.67-2.33,4.04-3.91,1.37-1.58,2.92-3.2,4.68-4.87,1.75-1.67,4.17-3.22,7.24-4.68,3.08-1.45,6.54-2.43,10.38-2.95l-15.38-48.05-17.94,56.89c-.94,2.99-1.15,5.25-.64,6.79.51,1.54,1.67,2.31,3.46,2.31Z"/>
      <path class="cls-1" d="M491.87,24.28v67.14c0,1.79.15,3.27.45,4.42.3,1.15.9,2.03,1.79,2.63.9.6,1.64,1,2.24,1.22.6.21,1.71.53,3.33.96v1.41h-18.45l-39.85-77.4v65.48c0,2.56.66,4.81,1.99,6.73,1.32,1.92,3.27,3.18,5.83,3.78v1.41h-17.04v-1.41c2.48-.6,4.4-1.86,5.77-3.78,1.37-1.92,2.05-4.16,2.05-6.73V23c0-1.79-.15-3.25-.45-4.36-.3-1.11-.88-1.99-1.73-2.63-.86-.64-1.6-1.07-2.24-1.28-.64-.21-1.77-.53-3.4-.96v-1.41h18.2l40.24,77.27V24.28c0-1.62-.3-3.16-.9-4.61-.6-1.45-1.5-2.69-2.69-3.72-1.2-1.02-2.61-1.75-4.23-2.18v-1.41h16.91v1.41c-2.48.6-4.4,1.86-5.77,3.78-1.37,1.92-2.05,4.16-2.05,6.73Z"/>
      <path class="cls-1" d="M552.35,98.47c3.16,0,6.13-.66,8.91-1.99,2.78-1.32,5.08-3.08,6.92-5.25,1.84-2.18,3.33-4.29,4.48-6.34s2.11-4.1,2.88-6.15c-2.14,7.94-5.49,14.01-10.06,18.2-4.57,4.19-10.02,6.28-16.34,6.28-15.21,0-26.65-5.89-34.34-17.68-6.32-9.74-8.88-21.14-7.69-34.21,1.11-12.56,5.29-22.59,12.56-30.11,6.32-6.41,13.79-9.61,22.42-9.61,2.48,0,5.83.45,10.06,1.35s7.5,1.35,9.8,1.35c5.3,0,8.8-.6,10.51-1.79v9.61c0,1.88-.53,3.31-1.6,4.29-1.07.98-2.5,1.47-4.29,1.47-1.97,0-3.76-.49-5.38-1.47-1.62-.98-3.03-2.16-4.23-3.52-1.2-1.37-2.43-2.75-3.72-4.16-1.28-1.41-2.86-2.58-4.74-3.52-1.88-.94-3.97-1.41-6.28-1.41-7.86,0-13.8,4.81-17.81,14.42-4.02,9.61-5.08,20.78-3.2,33.51,1.96,13.58,6.66,23.66,14.1,30.24,4.95,4.36,10.63,6.54,17.04,6.54Z"/>
      <path class="cls-1" d="M620,100.65c5.3,0,10.96-2.35,16.98-7.05,6.02-4.7,9.76-9.23,11.21-13.58l1.15.64-5.77,21.4h-60.87v-1.41c2.48-.6,4.4-1.86,5.77-3.78,1.37-1.92,2.05-4.16,2.05-6.73V23c0-4.87-2.61-7.94-7.82-9.23v-1.41h57.53l5.64,21.01-1.15.64c-1.45-4.27-5.17-8.71-11.15-13.33-5.98-4.61-11.66-6.92-17.04-6.92h-11.92v43.31h6.15c3.84,0,6.92-2.11,9.23-6.34s3.46-8.78,3.46-13.65h1.67v39.59h-1.67c-.17-11.96-4.36-17.94-12.56-17.94h-6.28v41.9h15.38Z"/>
    </g>
    <g>
      <path class="cls-1" d="M235.1,123.77l25.88,56.7h-6.28l-7.96-16.75h-28.81l-6.78,16.75h-3.35l23.87-56.7h3.43ZM219.02,161.12h26.47l-14.07-30.24-12.4,30.24Z"/>
      <path class="cls-1" d="M265.17,161.04c0-12.06,8.04-20.52,19.1-20.52s19.1,8.46,19.1,20.52v1.93h-31.41c.25,10.47,5.03,17.09,12.31,17.09,7.87,0,12.06-4.52,14.07-9.46l2.93,1.01c-2.76,5.78-7.54,10.05-17,10.05-11.06,0-19.1-8.79-19.1-20.6ZM296.58,161.04c.42-10.8-4.52-18.93-12.31-18.93s-12.31,7.96-12.31,18.93h24.62Z"/>
    </g>
    <g>
      <path class="cls-1" d="M343.9,170.25c0,8.12-9.55,11.39-17.17,11.39s-14.32-4.27-16.5-10.05l2.76-1.34c3.1,5.86,7.37,9.13,13.74,9.13s10.89-3.35,10.89-8.21c0-10.72-26.38-7.45-26.38-19.85,0-6.87,6.87-10.8,14.91-10.8,7.45,0,12.56,2.93,16.17,8.54l-2.51,1.51c-2.51-4.94-7.71-7.96-12.81-7.96-5.61,0-10.05,2.76-10.05,7.04,0,10.47,26.97,6.37,26.97,20.6Z"/>
      <path class="cls-1" d="M351.36,141.61c3.27,0,5.86-2.68,5.86-5.95v-4.19h3.43v10.13h8.38v2.51h-8.38v28.06c0,5.36,5.28,5.78,8.38,5.78v2.51h-2.85c-6.78,0-11.47-5.36-11.47-11.98v-24.37h-5.03v-2.51h1.68Z"/>
      <path class="cls-1" d="M415.6,180.47h-5.86v-23.2c0-9.63-5.28-14.07-12.31-14.07s-12.31,6.95-12.31,13.23v24.04h-5.95v-56.7h5.86v26.8c1.34-3.77,5.78-10.05,15.24-10.05s15.33,7.29,15.33,16.75v23.2Z"/>
      <path class="cls-1" d="M423.89,161.04c0-12.06,8.04-20.52,19.1-20.52s19.1,8.46,19.1,20.52v1.93h-31.41c.25,10.47,5.03,17.09,12.31,17.09,7.87,0,12.06-4.52,14.07-9.46l2.93,1.01c-2.76,5.78-7.54,10.05-17,10.05-11.06,0-19.1-8.79-19.1-20.6ZM455.3,161.04c.42-10.8-4.52-18.93-12.31-18.93s-12.31,7.96-12.31,18.93h24.62Z"/>
      <path class="cls-1" d="M469.71,141.61c3.27,0,5.86-2.68,5.86-5.95v-4.19h3.43v10.13h8.38v2.51h-8.38v28.06c0,5.36,5.28,5.78,8.38,5.78v2.51h-2.85c-6.78,0-11.47-5.36-11.47-11.98v-24.37h-5.03v-2.51h1.68Z"/>
      <path class="cls-1" d="M500.36,134.07c-2.43,0-4.35-1.93-4.35-4.27s1.93-4.36,4.35-4.36,4.27,1.93,4.27,4.36-1.93,4.27-4.27,4.27ZM497.35,141.61h5.95v38.86h-5.95v-38.86Z"/>
      <path class="cls-1" d="M549.03,171.51c-2.51,5.95-6.95,10.13-16.92,10.13-10.97,0-18.84-7.71-18.84-20.69,0-11.81,7.62-20.44,19.51-20.44,8.12,0,12.73,3.18,16.58,9.3l-2.51,1.59c-2.68-5.11-6.78-8.63-12.98-8.63-8.38,0-13.82,9.05-13.82,19.01,0,10.72,5.53,17.76,13.82,17.76,7.04,0,10.55-4.02,12.56-8.96l2.6.92Z"/>
    </g>
    <path class="cls-1" d="M160.93,25.85c-9.57-9-21-16.02-33.64-20.45-5.11-1.81-10.41-3.18-15.88-4.08-5.13-.87-10.42-1.32-15.81-1.32-3.77,0-7.51.22-11.16.65,2.94,1.79,5.91,3.83,8.92,6.16,13.12,10.13,21.27,19.88,24.47,29.25l.41-.22-25.08,77.82V42.8h-3.65c0,10.69-2.53,20.66-7.59,29.95-5.06,9.28-11.81,13.92-20.24,13.92h-31.86V26.25C11.44,43.66,0,68.29,0,95.59s11.74,52.54,30.49,69.97c-.46-2.01-.68-4.12-.68-6.36v-68.89h32.14c17,0,26.13,11.71,27.4,35.13l-11.23,34.87c-1.09,4.38-1.73,8.86-1.9,13.43-.19,4.58.91,8.62,3.28,12.15,1.66,2.48,3.86,4.09,6.6,4.82,1.91.19,3.84.33,5.78.39,3.34-.28,6.27-1.3,8.78-3.05,3.01-2.1,5.41-4.96,7.25-8.58,1.81-3.62,3.55-7.58,5.18-11.86,1.64-4.29,3.64-8.72,6.02-13.29,2.36-4.57,5.15-8.86,8.33-12.86,3.18-4.01,7.7-7.52,13.52-10.57,5.83-3.04,12.65-5.05,20.49-6l9.2,29.94c9.52-12.04,16.2-26.46,19.03-42.2l-28.72-86.77ZM138.21,128.58c-6.57,3.24-11.71,6.72-15.44,10.43-3.73,3.71-7.06,7.34-9.97,10.87-2.91,3.52-5.78,6.43-8.6,8.72-2.83,2.28-5.78,3.43-8.88,3.43-3.82,0-6.29-1.72-7.38-5.15-1.09-3.43.54-12.39,2.55-19.07l2.46-8.13h.2v-.68L127.56,14.83l32.78,107.19c-8.2,1.14-15.58,3.34-22.12,6.57"/>
  </g>
</svg>